<?xml version="1.0" standalone="no"?>
<!DOCTYPE svg PUBLIC "-//W3C//DTD SVG 20010904//EN"
 "http://www.w3.org/TR/2001/REC-SVG-20010904/DTD/svg10.dtd">
<svg version="1.0" xmlns="http://www.w3.org/2000/svg"
 width="163.000000pt" height="148.000000pt" viewBox="0 0 163.000000 148.000000"
 preserveAspectRatio="xMidYMid meet">

<g transform="translate(0.000000,148.000000) scale(0.100000,-0.100000)"
fill="#000000" stroke="none">
<path d="M259 1335 c-54 -29 -60 -107 -12 -145 25 -19 42 -20 568 -20 526 0
543 1 568 20 49 39 42 116 -14 145 -41 22 -1071 21 -1110 0z"/>
<path d="M236 799 c-14 -17 -26 -39 -26 -50 0 -36 29 -77 61 -88 45 -15 1043
-15 1088 0 32 11 61 52 61 88 0 11 -12 33 -26 50 l-26 31 -553 0 -553 0 -26
-31z"/>
<path d="M245 296 c-47 -47 -39 -116 15 -143 36 -18 1074 -18 1110 0 54 27 62
96 15 143 l-24 24 -546 0 -546 0 -24 -24z"/>
</g>
</svg>
